<svg width="81" height="22" viewBox="0 0 81 22" fill="none" xmlns="http://www.w3.org/2000/svg">
<path d="M5.89998 17H3.51344V7.70672H0.447292V5.71531H8.96613V7.70672H5.89998V17ZM14.5499 8.21248C14.6658 8.21248 14.8028 8.21775 14.9609 8.22829C15.1189 8.23882 15.2454 8.25463 15.3402 8.2757L15.1663 10.4884C15.082 10.4673 14.9714 10.4515 14.8344 10.441C14.6975 10.4199 14.5763 10.4094 14.4709 10.4094C14.0705 10.4094 13.6859 10.4831 13.3172 10.6306C12.9484 10.7676 12.6481 10.9941 12.4163 11.3102C12.195 11.6263 12.0844 12.0583 12.0844 12.6062V17H9.72945V8.37053H11.5154L11.8631 9.82458H11.9737C12.2266 9.38204 12.5743 9.00273 13.0169 8.68663C13.4594 8.37053 13.9704 8.21248 14.5499 8.21248ZM18.0918 4.98828C18.4396 4.98828 18.7398 5.07258 18.9927 5.24116C19.2456 5.39921 19.372 5.6995 19.372 6.14204C19.372 6.57404 19.2456 6.87433 18.9927 7.04292C18.7398 7.2115 18.4396 7.2958 18.0918 7.2958C17.7336 7.2958 17.428 7.2115 17.1752 7.04292C16.9328 6.87433 16.8116 6.57404 16.8116 6.14204C16.8116 5.6995 16.9328 5.39921 17.1752 5.24116C17.428 5.07258 17.7336 4.98828 18.0918 4.98828ZM19.2614 8.37053V17H16.9065V8.37053H19.2614ZM26.5267 8.21248C27.4961 8.21248 28.2811 8.5918 28.8816 9.35043C29.4822 10.0985 29.7825 11.2049 29.7825 12.6695C29.7825 14.1446 29.4717 15.2615 28.85 16.0201C28.2284 16.7787 27.4329 17.158 26.4635 17.158C25.8418 17.158 25.3466 17.0474 24.9778 16.8261C24.6091 16.5943 24.3088 16.3362 24.077 16.0517H23.9505C24.0348 16.4942 24.077 16.9157 24.077 17.3161V20.7932H21.722V8.37053H23.6344L23.9663 9.49268H24.077C24.3088 9.14497 24.6196 8.84468 25.0094 8.5918C25.3993 8.33892 25.9051 8.21248 26.5267 8.21248ZM25.7681 10.0933C25.157 10.0933 24.725 10.2882 24.4721 10.678C24.2192 11.0574 24.0875 11.6316 24.077 12.4008V12.6537C24.077 13.486 24.1981 14.1288 24.4405 14.5819C24.6934 15.0244 25.1464 15.2457 25.7997 15.2457C26.3371 15.2457 26.7322 15.0244 26.9851 14.5819C27.2485 14.1288 27.3802 13.4808 27.3802 12.6379C27.3802 10.9415 26.8428 10.0933 25.7681 10.0933Z" fill="white"/>
<path d="M43.6844 8.21248C44.6116 8.21248 45.3544 8.46536 45.9128 8.97112C46.4713 9.46634 46.7505 10.2671 46.7505 11.3735V17H44.3956V11.9582C44.3956 11.3366 44.2849 10.873 44.0637 10.5674C43.8424 10.2513 43.4894 10.0933 43.0047 10.0933C42.2883 10.0933 41.7983 10.3409 41.5349 10.8361C41.2715 11.3208 41.1398 12.0215 41.1398 12.9381V17H38.7848V8.37053H40.5866L40.9027 9.47687H41.0291C41.3031 9.03434 41.6771 8.71297 42.1513 8.51277C42.636 8.31258 43.147 8.21248 43.6844 8.21248ZM51.2269 17L47.9394 8.37053H50.405L52.0645 13.2859C52.1594 13.5809 52.2331 13.8864 52.2858 14.2025C52.3385 14.5186 52.3754 14.8031 52.3964 15.056H52.4596C52.4913 14.487 52.6072 13.897 52.8074 13.2859L54.4669 8.37053H56.9324L53.645 17H51.2269ZM61.7266 8.21248C62.9173 8.21248 63.8603 8.55492 64.5557 9.2398C65.2511 9.91414 65.5988 10.8782 65.5988 12.1321V13.27H60.0355C60.0566 13.9339 60.2515 14.4554 60.6203 14.8347C60.9996 15.214 61.5212 15.4037 62.185 15.4037C62.7329 15.4037 63.2334 15.351 63.6864 15.2457C64.15 15.1298 64.6242 14.9559 65.1089 14.7241V16.5417C64.6769 16.7524 64.2291 16.9052 63.7655 17C63.3018 17.1054 62.7381 17.158 62.0743 17.158C61.2103 17.158 60.4464 17 59.7826 16.6839C59.1188 16.3573 58.5973 15.8726 58.2179 15.2299C57.8386 14.5766 57.649 13.7495 57.649 12.7485C57.649 11.7475 57.8175 10.9098 58.1547 10.2355C58.5024 9.56116 58.9818 9.05541 59.593 8.71824C60.2041 8.38107 60.9153 8.21248 61.7266 8.21248ZM61.7424 9.8878C61.2788 9.8878 60.8995 10.0353 60.6045 10.3303C60.3094 10.6254 60.1356 11.0837 60.0829 11.7054H63.3861C63.3756 11.1891 63.2334 10.7571 62.9594 10.4094C62.696 10.0617 62.2903 9.8878 61.7424 9.8878ZM73.53 14.4396C73.53 15.3141 73.2192 15.9885 72.5975 16.4626C71.9864 16.9262 71.0697 17.158 69.8475 17.158C69.2469 17.158 68.7306 17.1159 68.2986 17.0316C67.8666 16.9579 67.4346 16.8314 67.0026 16.6523V14.7083C67.4662 14.919 67.9667 15.0929 68.5041 15.2299C69.0414 15.3668 69.5156 15.4353 69.9265 15.4353C70.3796 15.4353 70.7062 15.3668 70.9064 15.2299C71.1066 15.0929 71.2067 14.9138 71.2067 14.6925C71.2067 14.545 71.1646 14.4133 71.0803 14.2974C71.0065 14.1815 70.8379 14.0498 70.5745 13.9022C70.3111 13.7547 69.9002 13.5651 69.3417 13.3333C68.7938 13.1015 68.346 12.8749 67.9983 12.6537C67.6611 12.4219 67.4083 12.1479 67.2397 11.8318C67.0711 11.5052 66.9868 11.0995 66.9868 10.6148C66.9868 9.81404 67.2976 9.21346 67.9193 8.81307C68.541 8.41268 69.3681 8.21248 70.4007 8.21248C70.938 8.21248 71.4491 8.26516 71.9337 8.37053C72.4184 8.4759 72.9189 8.64975 73.4352 8.89209L72.724 10.5832C72.3025 10.4041 71.9021 10.2566 71.5228 10.1407C71.1435 10.0142 70.7589 9.95102 70.3691 9.95102C69.6736 9.95102 69.3259 10.1407 69.3259 10.52C69.3259 10.657 69.3681 10.7834 69.4524 10.8993C69.5472 11.0047 69.7211 11.1206 69.9739 11.247C70.2373 11.3735 70.6219 11.542 71.1277 11.7528C71.6229 11.953 72.0496 12.1637 72.4079 12.385C72.7661 12.5957 73.0401 12.8644 73.2297 13.191C73.4299 13.5177 73.53 13.9339 73.53 14.4396ZM78.9996 15.2773C79.2631 15.2773 79.5159 15.2562 79.7583 15.214C80.0006 15.1614 80.243 15.0929 80.4853 15.0086V16.7629C80.2324 16.8788 79.9163 16.9737 79.537 17.0474C79.1682 17.1212 78.7626 17.158 78.32 17.158C77.8037 17.158 77.3401 17.0738 76.9292 16.9052C76.5288 16.7366 76.2074 16.4468 75.9651 16.0359C75.7333 15.625 75.6174 15.0455 75.6174 14.2974V10.1407H74.4952V9.14497L75.7912 8.35472L76.4709 6.53716H77.9723V8.37053H80.3905V10.1407H77.9723V14.2974C77.9723 14.624 78.0671 14.8716 78.2568 15.0402C78.4465 15.1982 78.6941 15.2773 78.9996 15.2773Z" fill="white"/>
<path d="M34.4251 5.29712C33.0961 5.29712 31.8938 6.37407 31.8938 8.03966C31.8938 9.10323 32.669 10.3541 34.2162 11.7956C34.3365 11.906 34.5168 11.906 34.637 11.7956C36.1811 10.3541 36.9563 9.10323 36.9563 8.03966C36.9563 6.37407 35.754 5.29712 34.4251 5.29712ZM34.4251 8.64168C34.077 8.64168 33.7922 8.34067 33.7922 7.97277C33.7922 7.60486 34.077 7.30385 34.4251 7.30385C34.7731 7.30385 35.0579 7.60486 35.0579 7.97277C35.0579 8.34067 34.7731 8.64168 34.4251 8.64168Z" fill="#FF8C20"/>
<rect x="32.9062" y="12.8909" width="3.0375" height="4.55625" rx="0.493903" fill="white"/>
</svg>
