<svg width="160" height="44" viewBox="0 0 160 44" fill="none" xmlns="http://www.w3.org/2000/svg">
<path d="M11.6543 34.5366H6.94013V16.1795H0.88354V12.2459H17.7109V16.1795H11.6543V34.5366ZM28.7406 17.1786C28.9696 17.1786 29.2401 17.189 29.5523 17.2098C29.8645 17.2306 30.1143 17.2618 30.3016 17.3034L29.9582 21.6742C29.7917 21.6326 29.5731 21.6013 29.3026 21.5805C29.032 21.5389 28.7926 21.5181 28.5845 21.5181C27.7936 21.5181 27.0339 21.6638 26.3055 21.9552C25.577 22.2257 24.9839 22.6732 24.526 23.2976C24.0889 23.922 23.8704 24.7753 23.8704 25.8576V34.5366H19.2187V17.4908H22.7465L23.4333 20.363H23.6518C24.1513 19.4888 24.8382 18.7395 25.7123 18.1152C26.5865 17.4908 27.5959 17.1786 28.7406 17.1786ZM35.737 10.8098C36.4238 10.8098 37.017 10.9763 37.5165 11.3093C38.016 11.6215 38.2657 12.2147 38.2657 13.0888C38.2657 13.9421 38.016 14.5353 37.5165 14.8683C37.017 15.2013 36.4238 15.3678 35.737 15.3678C35.0293 15.3678 34.4257 15.2013 33.9262 14.8683C33.4475 14.5353 33.2082 13.9421 33.2082 13.0888C33.2082 12.2147 33.4475 11.6215 33.9262 11.3093C34.4257 10.9763 35.0293 10.8098 35.737 10.8098ZM38.0472 17.4908V34.5366H33.3955V17.4908H38.0472ZM52.3984 17.1786C54.3132 17.1786 55.8638 17.9278 57.0501 19.4264C58.2365 20.9041 58.8296 23.0895 58.8296 25.9825C58.8296 28.8963 58.2157 31.1025 56.9877 32.601C55.7597 34.0995 54.1883 34.8488 52.2735 34.8488C51.0456 34.8488 50.0674 34.6303 49.3389 34.1932C48.6105 33.7353 48.0173 33.2254 47.5594 32.6635H47.3096C47.4761 33.5376 47.5594 34.3701 47.5594 35.161V42.0293H42.9077V17.4908H46.6852L47.3409 19.7074H47.5594C48.0173 19.0205 48.6313 18.4274 49.4013 17.9278C50.1714 17.4283 51.1705 17.1786 52.3984 17.1786ZM50.8999 20.8937C49.6927 20.8937 48.8394 21.2787 48.3399 22.0488C47.8404 22.7981 47.5802 23.9324 47.5594 25.4517V25.9513C47.5594 27.5955 47.7987 28.8651 48.2774 29.76C48.777 30.6342 49.6719 31.0713 50.9623 31.0713C52.0238 31.0713 52.8043 30.6342 53.3038 29.76C53.8241 28.8651 54.0843 27.5851 54.0843 25.92C54.0843 22.5691 53.0228 20.8937 50.8999 20.8937Z" fill="#B34DC5"/>
<path d="M86.2901 17.1786C88.1217 17.1786 89.589 17.6781 90.6921 18.6771C91.7952 19.6553 92.3467 21.2371 92.3467 23.4225V34.5366H87.695V24.5776C87.695 23.3496 87.4765 22.4339 87.0394 21.8303C86.6023 21.2059 85.9051 20.8937 84.9477 20.8937C83.5324 20.8937 82.5646 21.3828 82.0443 22.361C81.524 23.3184 81.2638 24.7025 81.2638 26.5132V34.5366H76.6121V17.4908H80.1711L80.7955 19.6761H81.0453C81.5864 18.802 82.3253 18.1672 83.2618 17.7717C84.2192 17.3763 85.2287 17.1786 86.2901 17.1786ZM101.189 34.5366L94.6953 17.4908H99.5655L102.844 27.2C103.031 27.7828 103.177 28.3864 103.281 29.0108C103.385 29.6352 103.458 30.1971 103.499 30.6966H103.624C103.686 29.5727 103.915 28.4072 104.311 27.2L107.589 17.4908H112.459L105.966 34.5366H101.189ZM121.929 17.1786C124.281 17.1786 126.144 17.855 127.517 19.2078C128.891 20.5399 129.578 22.4443 129.578 24.921V27.1688H118.589C118.63 28.48 119.015 29.5103 119.744 30.2595C120.493 31.0088 121.523 31.3835 122.835 31.3835C123.917 31.3835 124.905 31.2794 125.8 31.0713C126.716 30.8423 127.653 30.4989 128.61 30.041V33.6313C127.757 34.0475 126.872 34.3493 125.956 34.5366C125.041 34.7448 123.927 34.8488 122.616 34.8488C120.909 34.8488 119.4 34.5366 118.089 33.9122C116.778 33.267 115.748 32.3096 114.998 31.04C114.249 29.7496 113.875 28.1158 113.875 26.1386C113.875 24.1613 114.208 22.5067 114.874 21.1747C115.56 19.8426 116.507 18.8436 117.715 18.1776C118.922 17.5116 120.327 17.1786 121.929 17.1786ZM121.96 20.4878C121.045 20.4878 120.295 20.7792 119.713 21.362C119.13 21.9448 118.786 22.8501 118.682 24.0781H125.207C125.186 23.0582 124.905 22.2049 124.364 21.5181C123.844 20.8313 123.043 20.4878 121.96 20.4878ZM145.245 29.4791C145.245 31.2065 144.631 32.5386 143.403 33.4752C142.195 34.3909 140.385 34.8488 137.97 34.8488C136.784 34.8488 135.764 34.7656 134.911 34.5991C134.058 34.4534 133.204 34.2036 132.351 33.8498V30.0098C133.267 30.4261 134.255 30.7695 135.317 31.04C136.378 31.3106 137.315 31.4459 138.126 31.4459C139.021 31.4459 139.667 31.3106 140.062 31.04C140.458 30.7695 140.655 30.4156 140.655 29.9786C140.655 29.6872 140.572 29.427 140.406 29.1981C140.26 28.9691 139.927 28.709 139.406 28.4176C138.886 28.1262 138.074 27.7516 136.971 27.2937C135.889 26.8358 135.005 26.3883 134.318 25.9513C133.652 25.4934 133.152 24.9522 132.819 24.3278C132.486 23.6826 132.32 22.8813 132.32 21.9239C132.32 20.3421 132.934 19.1558 134.162 18.3649C135.39 17.574 137.023 17.1786 139.063 17.1786C140.125 17.1786 141.134 17.2826 142.091 17.4908C143.049 17.6989 144.037 18.0423 145.057 18.521L143.652 21.8615C142.82 21.5077 142.029 21.2163 141.28 20.9874C140.53 20.7376 139.771 20.6127 139.001 20.6127C137.627 20.6127 136.94 20.9874 136.94 21.7366C136.94 22.0072 137.023 22.2569 137.19 22.4859C137.377 22.694 137.721 22.923 138.22 23.1727C138.74 23.4225 139.5 23.7555 140.499 24.1717C141.477 24.5672 142.32 24.9834 143.028 25.4205C143.736 25.8368 144.277 26.3675 144.651 27.0127C145.047 27.6579 145.245 28.48 145.245 29.4791ZM156.049 31.1337C156.569 31.1337 157.069 31.0921 157.547 31.0088C158.026 30.9048 158.505 30.7695 158.983 30.603V34.0683C158.484 34.2973 157.859 34.4846 157.11 34.6303C156.382 34.776 155.58 34.8488 154.706 34.8488C153.686 34.8488 152.771 34.6823 151.959 34.3493C151.168 34.0163 150.533 33.4439 150.055 32.6322C149.597 31.8205 149.368 30.6758 149.368 29.1981V20.9874H147.151V19.0205L149.711 17.4595L151.054 13.8693H154.019V17.4908H158.796V20.9874H154.019V29.1981C154.019 29.8433 154.207 30.3324 154.581 30.6654C154.956 30.9776 155.445 31.1337 156.049 31.1337Z" fill="#B34DC5"/>
<path d="M68 11C65.375 11 63 13.1273 63 16.4174C63 18.5182 64.5313 20.9891 67.5875 23.8365C67.825 24.0545 68.1813 24.0545 68.4187 23.8365C71.4688 20.9891 73 18.5182 73 16.4174C73 13.1273 70.625 11 68 11ZM68 17.6065C67.3125 17.6065 66.75 17.0119 66.75 16.2852C66.75 15.5585 67.3125 14.9639 68 14.9639C68.6875 14.9639 69.25 15.5585 69.25 16.2852C69.25 17.0119 68.6875 17.6065 68 17.6065Z" fill="#FF8C20"/>
<rect x="65" y="26" width="6" height="9" rx="0.97561" fill="#B34DC5"/>
</svg>
